<?xml version="1.0" encoding="UTF-8"?>
<!DOCTYPE svg PUBLIC "-//W3C//DTD SVG 1.1//EN" "http://www.w3.org/Graphics/SVG/1.1/DTD/svg11.dtd">
<svg xmlns="http://www.w3.org/2000/svg" version="1.1" width="2084px" height="2084px" style="shape-rendering:geometricPrecision; text-rendering:geometricPrecision; image-rendering:optimizeQuality; fill-rule:evenodd; clip-rule:evenodd" xmlns:xlink="http://www.w3.org/1999/xlink">
<g><path style="opacity:1" fill="#fefefe" d="M -0.5,-0.5 C 694.167,-0.5 1388.83,-0.5 2083.5,-0.5C 2083.5,694.167 2083.5,1388.83 2083.5,2083.5C 1388.83,2083.5 694.167,2083.5 -0.5,2083.5C -0.5,1388.83 -0.5,694.167 -0.5,-0.5 Z"/></g>
<g><path style="opacity:1" fill="#ea1495" d="M 982.5,24.5 C 1095.98,19.46 1175.15,68.7933 1220,172.5C 1235.04,220.126 1240.04,268.792 1235,318.5C 1225,348.046 1206.17,355.546 1178.5,341C 1174.91,338.079 1172.08,334.579 1170,330.5C 1168.96,291.421 1166.3,252.421 1162,213.5C 1133.03,125.254 1072.19,86.4204 979.5,97C 917.208,113.292 877.375,152.458 860,214.5C 857.446,251.125 855.779,287.792 855,324.5C 842.719,349.115 824.553,354.615 800.5,341C 793.003,334.171 789.17,325.671 789,315.5C 776.454,241.383 791.454,173.716 834,112.5C 861.209,76.9832 896.042,51.8166 938.5,37C 953.11,32.1848 967.777,28.0181 982.5,24.5 Z"/></g>
<g><path style="opacity:1" fill="#ea0c94" d="M 650.5,403.5 C 890.168,403.255 1129.83,403.755 1369.5,405C 1423.55,417.379 1455.38,450.879 1465,505.5C 1490.76,751.444 1515.93,997.444 1540.5,1243.5C 1536.43,1319.83 1496.77,1364.33 1421.5,1377C 1326.17,1377.67 1230.83,1377.67 1135.5,1377C 1044.35,1357.85 989.18,1302.68 970,1211.5C 968,1190.17 968,1168.83 970,1147.5C 982.356,1103.41 995.022,1059.41 1008,1015.5C 1016.83,945.321 990.66,892.821 929.5,858C 898.863,845.379 867.196,841.712 834.5,847C 799.677,858.539 764.344,868.206 728.5,876C 647.843,880.603 589.343,847.103 553,775.5C 541.875,746.837 537.542,717.17 540,686.5C 545.65,619.316 552.983,552.316 562,485.5C 576.686,441.974 606.186,414.64 650.5,403.5 Z"/></g>
<g><path style="opacity:1" fill="#ea0f94" d="M 852.5,924.5 C 891.699,921.17 917.199,938.17 929,975.5C 929.846,984.553 929.513,993.553 928,1002.5C 890.404,1127.95 852.404,1253.29 814,1378.5C 793.469,1416.12 763.635,1425.95 724.5,1408C 718.333,1403.17 712.833,1397.67 708,1391.5C 689.608,1349.72 670.941,1308.05 652,1266.5C 636.588,1242.42 617.088,1222.25 593.5,1206C 551.092,1185.3 508.092,1165.96 464.5,1148C 433.958,1122.06 429.458,1092.22 451,1058.5C 457.701,1051.9 465.201,1046.4 473.5,1042C 600.049,1003.09 726.383,963.925 852.5,924.5 Z"/></g>
<g><path style="opacity:1" fill="#ef53b3" d="M 1106.5,1710.5 C 1107.02,1714.76 1105.85,1718.42 1103,1721.5C 1102.67,1715.17 1102.33,1708.83 1102,1702.5C 1101.5,1643.5 1101.33,1584.5 1101.5,1525.5C 1069.83,1525.5 1038.17,1525.5 1006.5,1525.5C 1006.5,1672.17 1006.5,1818.83 1006.5,1965.5C 1005.67,1930.67 1005.17,1895.67 1005,1860.5C 1004.5,1748.17 1004.33,1635.83 1004.5,1523.5C 1037.5,1523.5 1070.5,1523.5 1103.5,1523.5C 1103.33,1563.17 1103.5,1602.83 1104,1642.5C 1104.2,1665.35 1105.03,1688.02 1106.5,1710.5 Z"/></g>
<g><path style="opacity:1" fill="#ea1094" d="M 1106.5,1791.5 C 1106,1789.52 1105.5,1787.52 1105,1785.5C 1104.5,1791.16 1104.33,1796.82 1104.5,1802.5C 1103.68,1874.83 1103.35,1947.16 1103.5,2019.5C 1071.17,2019.5 1038.83,2019.5 1006.5,2019.5C 1006.5,2001.5 1006.5,1983.5 1006.5,1965.5C 1006.5,1818.83 1006.5,1672.17 1006.5,1525.5C 1038.17,1525.5 1069.83,1525.5 1101.5,1525.5C 1101.33,1584.5 1101.5,1643.5 1102,1702.5C 1102.33,1708.83 1102.67,1715.17 1103,1721.5C 1105.85,1718.42 1107.02,1714.76 1106.5,1710.5C 1118.92,1648.82 1132.92,1587.48 1148.5,1526.5C 1150.42,1525.69 1152.42,1525.19 1154.5,1525C 1186.14,1522.7 1217.81,1522.2 1249.5,1523.5C 1230.86,1598.07 1212.52,1672.74 1194.5,1747.5C 1216.66,1837.81 1238.66,1928.14 1260.5,2018.5C 1227.16,2019.79 1193.83,2019.62 1160.5,2018C 1159.38,2017.75 1158.38,2017.25 1157.5,2016.5C 1140.34,1941.52 1123.34,1866.52 1106.5,1791.5 Z"/></g>
<g><path style="opacity:1" fill="#ea1595" d="M 1894.5,1613.5 C 1894.5,1638.5 1894.5,1663.5 1894.5,1688.5C 1889.64,1688.18 1884.97,1688.51 1880.5,1689.5C 1876.48,1689.29 1872.65,1689.95 1869,1691.5C 1868.25,1775.84 1868.75,1860.17 1870.5,1944.5C 1876.04,1946.13 1881.71,1946.79 1887.5,1946.5C 1890.29,1947.48 1893.29,1947.81 1896.5,1947.5C 1896.5,1970.83 1896.5,1994.17 1896.5,2017.5C 1881.08,2019.13 1865.74,2021.29 1850.5,2024C 1828.65,2026.03 1807.98,2022.03 1788.5,2012C 1778.51,2001.85 1772.34,1989.68 1770,1975.5C 1769.52,1880.83 1769.02,1786.17 1768.5,1691.5C 1759.17,1691.5 1749.83,1691.5 1740.5,1691.5C 1740.5,1665.5 1740.5,1639.5 1740.5,1613.5C 1749.83,1613.5 1759.17,1613.5 1768.5,1613.5C 1768.5,1583.5 1768.5,1553.5 1768.5,1523.5C 1801.17,1523.5 1833.83,1523.5 1866.5,1523.5C 1866.5,1553.5 1866.5,1583.5 1866.5,1613.5C 1875.83,1613.5 1885.17,1613.5 1894.5,1613.5 Z"/></g>
<g><path style="opacity:1" fill="#ea1194" d="M 192.5,1534.5 C 244.855,1534.05 297.188,1534.55 349.5,1536C 394.814,1545.65 420.314,1573.48 426,1619.5C 428.33,1713.82 428.996,1808.15 428,1902.5C 425.094,1935.13 413.261,1963.96 392.5,1989C 378.622,1999.74 362.956,2006.41 345.5,2009C 294.515,2010.42 243.515,2010.92 192.5,2010.5C 192.5,1851.83 192.5,1693.17 192.5,1534.5 Z"/></g>
<g><path style="opacity:1" fill="#ea1194" d="M 1513.5,1679.5 C 1513.5,1792.17 1513.5,1904.83 1513.5,2017.5C 1481.17,2017.5 1448.83,2017.5 1416.5,2017.5C 1417.04,2002.53 1416.87,1987.53 1416,1972.5C 1415.75,1971.38 1415.25,1970.38 1414.5,1969.5C 1413.24,1971.03 1412.24,1972.7 1411.5,1974.5C 1394.89,2018.8 1363.89,2033.63 1318.5,2019C 1298.19,2010.02 1284.02,1995.19 1276,1974.5C 1263.37,1925.82 1263.37,1877.15 1276,1828.5C 1285.24,1805.92 1300.74,1789.09 1322.5,1778C 1352.2,1766.77 1382.03,1755.93 1412,1745.5C 1415.98,1723.6 1414.98,1701.93 1409,1680.5C 1392.42,1663.65 1380.09,1666.32 1372,1688.5C 1370.71,1699.79 1370.21,1711.13 1370.5,1722.5C 1337.93,1722.83 1305.43,1722.5 1273,1721.5C 1269.12,1689.22 1275.12,1658.89 1291,1630.5C 1304.53,1615.31 1321.03,1604.47 1340.5,1598C 1390.56,1583.87 1437.56,1590.53 1481.5,1618C 1499.71,1634.59 1510.38,1655.09 1513.5,1679.5 Z"/></g>
<g><path style="opacity:1" fill="#ea0d94" d="M 1643.5,2017.5 C 1614.17,2017.5 1584.83,2017.5 1555.5,2017.5C 1555.5,1877.83 1555.5,1738.17 1555.5,1598.5C 1588.5,1598.5 1621.5,1598.5 1654.5,1598.5C 1654.54,1611.18 1655.04,1623.85 1656,1636.5C 1669.78,1605.69 1693.61,1590.69 1727.5,1591.5C 1727.5,1620.17 1727.5,1648.83 1727.5,1677.5C 1706.23,1676.72 1685.56,1679.89 1665.5,1687C 1661.73,1688.3 1658.56,1690.47 1656,1693.5C 1654.79,1801.5 1654.29,1909.5 1654.5,2017.5C 1650.83,2017.5 1647.17,2017.5 1643.5,2017.5 Z"/></g>
<g><path style="opacity:1" fill="#ed40a9" d="M 1654.5,1598.5 C 1621.5,1598.5 1588.5,1598.5 1555.5,1598.5C 1555.5,1738.17 1555.5,1877.83 1555.5,2017.5C 1584.83,2017.5 1614.17,2017.5 1643.5,2017.5C 1638.35,2018.33 1633.02,2018.83 1627.5,2019C 1602.84,2019.5 1578.17,2019.67 1553.5,2019.5C 1553.5,1878.17 1553.5,1736.83 1553.5,1595.5C 1587.36,1595.26 1621.03,1596.26 1654.5,1598.5 Z"/></g>
<g><path style="opacity:1" fill="#ea1394" d="M 556.5,1599.5 C 590.685,1596.31 623.019,1602.48 653.5,1618C 679.607,1636.7 695.774,1661.87 702,1693.5C 704.377,1759.48 705.043,1825.48 704,1891.5C 707.047,1964.43 672.547,2005.6 600.5,2015C 570.722,2017.81 542.056,2013.48 514.5,2002C 486.416,1985.36 469.583,1960.86 464,1928.5C 460.975,1890.23 459.475,1851.9 459.5,1813.5C 459.899,1777.17 460.399,1740.83 461,1704.5C 469.679,1648.33 501.512,1613.33 556.5,1599.5 Z"/></g>
<g><path style="opacity:1" fill="#ea1394" d="M 733.5,1604.5 C 799.738,1604.17 865.904,1604.5 932,1605.5C 932.619,1627.51 932.285,1649.51 931,1671.5C 898.663,1759.68 866.83,1848.01 835.5,1936.5C 867.818,1937.45 900.151,1937.78 932.5,1937.5C 932.5,1961.83 932.5,1986.17 932.5,2010.5C 864.5,2010.5 796.5,2010.5 728.5,2010.5C 728.276,1988.82 728.776,1967.15 730,1945.5C 761.863,1860.91 793.53,1776.24 825,1691.5C 825.937,1688.34 827.437,1685.51 829.5,1683C 797.54,1680.85 765.54,1680.02 733.5,1680.5C 733.5,1655.17 733.5,1629.83 733.5,1604.5 Z"/></g>
<g><path style="opacity:1" fill="#f48fcc" d="M 1894.5,1613.5 C 1895.5,1638.66 1895.83,1663.99 1895.5,1689.5C 1890.5,1689.5 1885.5,1689.5 1880.5,1689.5C 1884.97,1688.51 1889.64,1688.18 1894.5,1688.5C 1894.5,1663.5 1894.5,1638.5 1894.5,1613.5 Z"/></g>
<g><path style="opacity:1" fill="#fdf9fc" d="M 276.5,1622.5 C 287.669,1622.1 298.669,1623.27 309.5,1626C 313.145,1629.45 315.645,1633.62 317,1638.5C 318.113,1681.82 318.613,1725.15 318.5,1768.5C 318.333,1805.83 318.167,1843.17 318,1880.5C 317.921,1893.22 317.254,1905.89 316,1918.5C 313.833,1922.67 310.667,1925.83 306.5,1928C 296.557,1929.36 286.557,1929.86 276.5,1929.5C 276.5,1827.17 276.5,1724.83 276.5,1622.5 Z"/></g>
<g><path style="opacity:1" fill="#fdf9fc" d="M 573.5,1675.5 C 589.415,1672.86 599.582,1679.2 604,1694.5C 605.732,1769.16 605.732,1843.83 604,1918.5C 600.662,1936.5 590.162,1943 572.5,1938C 564.936,1933.71 560.769,1927.21 560,1918.5C 559.333,1845.5 559.333,1772.5 560,1699.5C 561.659,1689.84 566.159,1681.84 573.5,1675.5 Z"/></g>
<g><path style="opacity:1" fill="#f168bb" d="M 1513.5,1679.5 C 1515.93,1792.66 1516.93,1905.99 1516.5,2019.5C 1482.5,2019.5 1448.5,2019.5 1414.5,2019.5C 1414.67,2009.49 1414.5,1999.49 1414,1989.5C 1413.56,1984.29 1412.73,1979.29 1411.5,1974.5C 1412.24,1972.7 1413.24,1971.03 1414.5,1969.5C 1415.25,1970.38 1415.75,1971.38 1416,1972.5C 1416.87,1987.53 1417.04,2002.53 1416.5,2017.5C 1448.83,2017.5 1481.17,2017.5 1513.5,2017.5C 1513.5,1904.83 1513.5,1792.17 1513.5,1679.5 Z"/></g>
<g><path style="opacity:1" fill="#f9bee1" d="M 1106.5,1791.5 C 1105.83,1795.17 1105.17,1798.83 1104.5,1802.5C 1104.33,1796.82 1104.5,1791.16 1105,1785.5C 1105.5,1787.52 1106,1789.52 1106.5,1791.5 Z"/></g>
<g><path style="opacity:1" fill="#f26cbe" d="M 1412.5,1898.5 C 1412.43,1865.81 1411.6,1833.15 1410,1800.5C 1409.77,1799.26 1409.27,1798.26 1408.5,1797.5C 1409.69,1796.64 1410.85,1795.64 1412,1794.5C 1415.08,1829.3 1415.25,1863.97 1412.5,1898.5 Z"/></g>
<g><path style="opacity:1" fill="#fdfcfd" d="M 1408.5,1797.5 C 1409.27,1798.26 1409.77,1799.26 1410,1800.5C 1411.6,1833.15 1412.43,1865.81 1412.5,1898.5C 1414.76,1913.86 1411.76,1928.03 1403.5,1941C 1386.95,1948.83 1376.45,1944 1372,1926.5C 1370.53,1897.18 1370.2,1867.85 1371,1838.5C 1375.65,1817.69 1388.15,1804.02 1408.5,1797.5 Z"/></g>
<g><path style="opacity:1" fill="#ef52b1" d="M 1887.5,1946.5 C 1890.83,1946.5 1894.17,1946.5 1897.5,1946.5C 1897.83,1970.34 1897.5,1994.01 1896.5,2017.5C 1896.5,1994.17 1896.5,1970.83 1896.5,1947.5C 1893.29,1947.81 1890.29,1947.48 1887.5,1946.5 Z"/></g>
</svg>
