<svg id="Layer_1" data-name="Layer 1" xmlns="http://www.w3.org/2000/svg" viewBox="0 0 350.72 450.4"><defs><style>.cls-1{fill:#e5238f;}.cls-1,.cls-10,.cls-11,.cls-12,.cls-13,.cls-2,.cls-3,.cls-4,.cls-5,.cls-6,.cls-7,.cls-8,.cls-9{fill-rule:evenodd;}.cls-2{fill:#e51e8e;}.cls-3{fill:#de599f;}.cls-4{fill:#eca4c8;}.cls-5{fill:#df4698;}.cls-6{fill:#e5218e;}.cls-7{fill:#e896c0;}.cls-8{fill:#fffbfc;}.cls-9{fill:#fff9fb;}.cls-10{fill:#e68ab9;}.cls-11{fill:#df61a3;}.cls-12{fill:#fff;}.cls-13{fill:#e06faa;}.cls-14{font-size:26.75px;fill:#262626;font-family:Poppins-Medium, Poppins;font-weight:500;}</style></defs><title>Untitled-5</title><path class="cls-1" d="M180.88,6.86Q215.19,6,228.74,34a59.74,59.74,0,0,1,3.17,26.78q-2.91,8.3-11.56,4.25a5.74,5.74,0,0,1-2-2.63,155,155,0,0,0-1.37-21.09q-9-23.76-37-21.3-19.69,4.23-25.17,21.7-.86,9.91-.91,19.88-3.12,6.81-10.66,3.85a6.51,6.51,0,0,1-2.95-3.85q-.45-9.73,0-19.47Q147.54,12.44,180.88,6.86Z" transform="translate(-26.66 -6.83)"/><path class="cls-2" d="M112.38,76.63q73.49-.1,147,.2Q275.58,80,279.09,94.47q8.06,68.54,15.65,137.1-1.44,20.88-24.49,24.14-29.26.41-58.52,0-28.47-5.18-34.25-30.63a71.68,71.68,0,0,1,0-11.35q3.95-12.81,8.16-25.56,1.76-18.46-16.1-27.78a37.38,37.38,0,0,0-20.87-2,193.91,193.91,0,0,1-21.77,5.27q-24.2.7-35.16-18.45a32.62,32.62,0,0,1-2.95-14q1.81-19.83,4.77-39.55Q98.2,79.29,112.38,76.63Z" transform="translate(-26.66 -6.83)"/><path class="cls-2" d="M152.3,172.76q12.51-1.68,16.56,8.92a13.29,13.29,0,0,1,0,4.87q-11.69,34.71-23.59,69.36-6.22,10.52-18.37,5.48a17.39,17.39,0,0,1-3.4-3q-5.55-11.42-11.35-22.72a42.9,42.9,0,0,0-12.47-11.56q-13-5.61-26.31-10.55-9-6.89-3-16a15.06,15.06,0,0,1,5.22-3.45Q114.09,183.49,152.3,172.76Z" transform="translate(-26.66 -6.83)"/><path class="cls-2" d="M194.05,369.88V279h19.51q-.12,18,.23,36.1a1.7,1.7,0,0,0,.68-1.62q4.09-17.29,8.84-34.48,10.27-.6,20.64-.41Q238.3,299.29,232.61,320q6.91,24.93,13.61,49.89-10.59.19-21.09-.41l-10.89-43q-.35,21.69-.23,43.4Z" transform="translate(-26.66 -6.83)"/><path class="cls-3" d="M214.47,313.5a1.7,1.7,0,0,1-.68,1.62q-.34-18-.23-36.1H194.05v90.86q-.68-45.54-.45-91.27H214Q213.79,296.16,214.47,313.5Z" transform="translate(-26.66 -6.83)"/><path class="cls-1" d="M371,278.61v16.63h5.9V309a18.71,18.71,0,0,0-5.44.41q-.12,23.32.22,46.65a21,21,0,0,0,5.67.4v13a77.09,77.09,0,0,0-7.71,1,25.62,25.62,0,0,1-14.51-2,11.33,11.33,0,0,1-3.86-7.1q-.35-26-.23-51.92h-5.89v-14.2H351V278.61Z" transform="translate(-26.66 -6.83)"/><path class="cls-4" d="M371,278.61a143.29,143.29,0,0,1,.46,16.23,18.4,18.4,0,0,1,5.44.4H371Z" transform="translate(-26.66 -6.83)"/><path class="cls-2" d="M26.66,280.64q15.89-.11,31.76.2,14.06,2.45,16.1,15.21.81,25.15.45,50.3a26.32,26.32,0,0,1-7,17.65,21.72,21.72,0,0,1-11.34,4.05q-15,.31-29.94.21Z" transform="translate(-26.66 -6.83)"/><path class="cls-2" d="M298.39,307.41v62.06h-20a85.7,85.7,0,0,0-.23-8.92,1.81,1.81,0,0,0-.68.81q-5.07,12.57-19.5,8.32-8.28-3.36-9.3-11.57a45.57,45.57,0,0,1,.9-23.52,17.66,17.66,0,0,1,10.67-9.53q8.54-2.93,17.23-5.48a25.46,25.46,0,0,0-.68-12.17q-5.28-4.65-7.71,1.62a41.35,41.35,0,0,0-.23,6.09h-20a24.7,24.7,0,0,1,3.86-17,22.8,22.8,0,0,1,12.93-6.29A36.26,36.26,0,0,1,292,296.26,17.28,17.28,0,0,1,298.39,307.41Z" transform="translate(-26.66 -6.83)"/><path class="cls-2" d="M327.42,369.47H307V292.4h20.41a59.29,59.29,0,0,0,.23,7.3q4.08-8.76,14.74-8.51V307a34.57,34.57,0,0,0-13.15,1.82,3.18,3.18,0,0,0-1.59,1Q327.31,339.66,327.42,369.47Z" transform="translate(-26.66 -6.83)"/><path class="cls-5" d="M327.42,292.4H307v77.07h20.41q-10.31.61-20.86.41V292Q317.1,291.79,327.42,292.4Z" transform="translate(-26.66 -6.83)"/><path class="cls-6" d="M101.06,292.81a37.4,37.4,0,0,1,20,3,21.72,21.72,0,0,1,10.21,13.59q1.1,19.86.45,39.75-.48,15.39-17,19.27a43.48,43.48,0,0,1-21.32-1.62q-9.88-5-11.12-15.22-.75-10.41-.68-20.88.12-9,.23-18.06Q83.85,296.74,101.06,292.81Z" transform="translate(-26.66 -6.83)"/><path class="cls-2" d="M157.31,308.22a.46.46,0,0,0,.45-.4q-10-.61-20-.41V293.62h40.83q.12,6.09-.23,12.17-9.87,24.45-19.73,48.88,10,.3,20,.2v13.39H136.9q-.12-5.89.22-11.77Q147.23,332.34,157.31,308.22Z" transform="translate(-26.66 -6.83)"/><path class="cls-7" d="M376.87,295.24a111.42,111.42,0,0,1,.45,14.2h-5.89a18.71,18.71,0,0,1,5.44-.41Z" transform="translate(-26.66 -6.83)"/><path class="cls-4" d="M46.62,296.05v56.39h4.54a15.77,15.77,0,0,1-5,.4Q45.95,324.34,46.62,296.05Z" transform="translate(-26.66 -6.83)"/><path class="cls-8" d="M46.62,296.05a23.2,23.2,0,0,1,6.81.61,4.63,4.63,0,0,1,1.58,3q.47,24.75,0,49.49c-.34,2-1.63,3.08-3.85,3.25H46.62Z" transform="translate(-26.66 -6.83)"/><path class="cls-9" d="M105.14,306.6c3.3-.45,5.35.77,6.13,3.65q.45,20.49,0,41c-.34,2.53-1.93,3.89-4.77,4.06-2.55-.35-4-1.71-4.31-4.06q-.45-20.09,0-40.16A6.33,6.33,0,0,1,105.14,306.6Z" transform="translate(-26.66 -6.83)"/><path class="cls-10" d="M137.8,307.41q10-.2,20,.41a.46.46,0,0,1-.45.4Z" transform="translate(-26.66 -6.83)"/><path class="cls-11" d="M298.39,307.41q.67,31.13.45,62.47H278a40.7,40.7,0,0,0-.46-8.52,1.81,1.81,0,0,1,.68-.81,85.7,85.7,0,0,1,.23,8.92h20Z" transform="translate(-26.66 -6.83)"/><path class="cls-12" d="M277.07,328.91q.68,10.63.45,21.5a8.07,8.07,0,0,1-1.81,5.07q-5.43,2.08-6.58-3a153.76,153.76,0,0,1,0-16.63A11.42,11.42,0,0,1,277.07,328.91Z" transform="translate(-26.66 -6.83)"/><path class="cls-13" d="M277.07,328.91a.48.48,0,0,1,.45-.41,131.39,131.39,0,0,1,0,21.91Q277.75,339.55,277.07,328.91Z" transform="translate(-26.66 -6.83)"/><text class="cls-14" transform="translate(3.07 402.74) scale(1.12 1)">E-COMMERCE &amp; CROSS<tspan x="30.37" y="32.1" xml:space="preserve"> BORDER SHIPMENT</tspan></text></svg>